# xmcd
#
# Track frame offsets: 
#        150
#        18972
#        31745
#        73298
#        92417
#        124244
#        140626
#        157211
#
# Disc length: 2535 seconds
#
# Revision: 0
# Processed by: cddbd v1.5.2PL0 Copyright (c) Steve Scherf et al.
# Submitted via: ExactAudioCopy v1.0b4
#
DISCID=6b09e508
DTITLE=George 'Harmonica' Smith - No Time For Jive (LP)
DYEAR=1969
DGENRE=Blues
TTITLE0=Someday You' re Gonna Learn
TTITLE1=Blue Switch
TTITLE2=Mississippi River Blues
TTITLE3=Before You Do Your Thing (You'd Better Think)
TTITLE4=Don't Want To Go, Baby
TTITLE5=Good Thing
TTITLE6=Soul Feet
TTITLE7=No Time For Jive
EXTD=
EXTT0=
EXTT1=
EXTT2=
EXTT3=
EXTT4=
EXTT5=
EXTT6=
EXTT7=
PLAYORDER=
